<svg xmlns="http://www.w3.org/2000/svg" xmlns:xlink="http://www.w3.org/1999/xlink" width="500" zoomAndPan="magnify" viewBox="0 0 375 374.999991" height="500" preserveAspectRatio="xMidYMid meet" version="1.0"><defs><filter x="0%" y="0%" width="100%" height="100%" id="id1"><feColorMatrix values="0 0 0 0 1 0 0 0 0 1 0 0 0 0 1 0 0 0 1 0" color-interpolation-filters="sRGB"/></filter><g/><mask id="id2"><g filter="url(#id1)"><rect x="-37.5" width="450" fill="#000000" y="-37.499999" height="449.999989" fill-opacity="0.8667"/></g></mask><clipPath id="id3"><rect x="0" width="5" y="0" height="253"/></clipPath></defs><g fill="#01cbb3" fill-opacity="1"><g transform="translate(45.059884, 246.1961)"><g><path d="M 105.519531 -19.449219 L 63.519531 -165.523438 L 56.691406 -165.523438 C 57.933594 -162.625 58.140625 -160.761719 57.519531 -158.074219 L 16.964844 -19.242188 C 14.691406 -11.585938 14.277344 -8.070312 10.34375 0 L 14.484375 0 C 15.105469 -8.070312 16.964844 -11.585938 19.242188 -19.449219 L 31.449219 -61.449219 L 88.140625 -61.449219 L 100.140625 -19.449219 C 102.417969 -11.585938 103.65625 -8.070312 104.277344 0 L 112.96875 0 C 109.039062 -8.070312 107.796875 -11.585938 105.519531 -19.449219 Z M 32.070312 -63.519531 L 60 -158.902344 L 87.519531 -63.519531 Z M 32.070312 -63.519531 "/></g></g></g><g fill="#01cbb3" fill-opacity="1"><g transform="translate(203.712193, 246.18643)"><g><path d="M 8.28125 -50.921875 C 18.007812 -9.316406 40.984375 4.140625 66.238281 4.140625 C 89.21875 4.140625 108.261719 -8.695312 108.261719 -34.984375 C 108.261719 -57.753906 91.078125 -69.964844 60.03125 -95.839844 C 38.503906 -113.851562 23.390625 -121.921875 23.390625 -141.589844 C 23.390625 -157.527344 34.984375 -167.671875 54.234375 -167.671875 C 80.316406 -167.671875 91.285156 -148.832031 92.941406 -131.238281 L 101.222656 -133.308594 C 91.492188 -156.078125 76.382812 -169.738281 54.234375 -169.738281 C 32.707031 -169.738281 19.25 -158.5625 19.25 -139.933594 C 19.25 -121.300781 30.636719 -113.851562 55.890625 -92.941406 C 84.457031 -69.136719 104.121094 -55.683594 104.121094 -34.984375 C 104.121094 -9.316406 86.941406 2.070312 66.238281 2.070312 C 39.121094 2.070312 17.800781 -19.871094 16.558594 -52.992188 Z M 8.28125 -50.921875 "/></g></g></g><g mask="url(#id2)"><g transform="matrix(1, 0, 0, 1, 184, 30)"><g clip-path="url(#id3)"><path stroke-linecap="butt" transform="matrix(0.000000000000000138, -2.247136, 2.25, 0.000000000000000138, 2.373864, 250.46588)" fill="none" stroke-linejoin="miter" d="M 0.000461135 0.000504741 L 110.474422 0.000504741 " stroke="#01cbb3" stroke-width="1" stroke-opacity="1" stroke-miterlimit="4"/></g></g></g><g fill="#01cbb3" fill-opacity="1"><g transform="translate(97.874998, 333.808864)"><g><path d="M 6.664062 -17.554688 L 1.34375 -17.554688 L 1.34375 0.0546875 L 2.324219 0.0546875 L 2.324219 -8.148438 L 5.347656 -8.148438 C 6.1875 -8.148438 12.289062 -8.121094 12.289062 -13.160156 C 12.289062 -17.023438 8.089844 -17.554688 6.664062 -17.554688 Z M 4.871094 -8.59375 L 2.324219 -8.59375 L 2.324219 -17.105469 L 5.597656 -17.105469 C 8.457031 -17.105469 11.28125 -16.492188 11.28125 -12.851562 C 11.28125 -9.492188 8.148438 -8.59375 4.871094 -8.59375 Z M 4.871094 -8.59375 "/></g></g></g><g fill="#01cbb3" fill-opacity="1"><g transform="translate(111.341157, 333.808864)"><g><path d="M 12.570312 -17.554688 L 12.570312 -9.378906 L 2.324219 -9.378906 L 2.324219 -17.554688 L 1.34375 -17.554688 L 1.34375 0.0273438 L 2.324219 0.0273438 L 2.324219 -8.929688 L 12.570312 -8.929688 L 12.570312 0.0273438 L 13.578125 0.0273438 L 13.578125 -17.554688 Z M 12.570312 -17.554688 "/></g></g></g><g fill="#01cbb3" fill-opacity="1"><g transform="translate(126.375111, 333.808864)"><g><path d="M 10.75 -17.890625 C 5.710938 -17.890625 1.121094 -15.203125 1.121094 -8.707031 C 1.121094 -1.230469 7.222656 0.53125 10.75 0.53125 C 14.25 0.53125 20.382812 -1.230469 20.382812 -8.707031 C 20.382812 -15.203125 15.761719 -17.890625 10.75 -17.890625 Z M 10.75 0.0546875 C 7.585938 0.0546875 2.101562 -1.34375 2.101562 -8.707031 C 2.101562 -15.957031 8.035156 -17.441406 10.75 -17.441406 C 13.46875 -17.441406 19.375 -15.957031 19.375 -8.707031 C 19.375 -1.34375 13.886719 0.0546875 10.75 0.0546875 Z M 10.75 0.0546875 "/></g></g></g><g fill="#01cbb3" fill-opacity="1"><g transform="translate(148.044153, 333.808864)"><g><path d="M 13.746094 -17.554688 L 0.925781 -17.554688 L 0.925781 -17.105469 L 6.832031 -17.105469 L 6.832031 0.0546875 L 7.839844 0.0546875 L 7.839844 -17.105469 L 13.746094 -17.105469 Z M 13.746094 -17.554688 "/></g></g></g><g fill="#01cbb3" fill-opacity="1"><g transform="translate(162.742143, 333.808864)"><g><path d="M 10.75 -17.890625 C 5.710938 -17.890625 1.121094 -15.203125 1.121094 -8.707031 C 1.121094 -1.230469 7.222656 0.53125 10.75 0.53125 C 14.25 0.53125 20.382812 -1.230469 20.382812 -8.707031 C 20.382812 -15.203125 15.761719 -17.890625 10.75 -17.890625 Z M 10.75 0.0546875 C 7.585938 0.0546875 2.101562 -1.34375 2.101562 -8.707031 C 2.101562 -15.957031 8.035156 -17.441406 10.75 -17.441406 C 13.46875 -17.441406 19.375 -15.957031 19.375 -8.707031 C 19.375 -1.34375 13.886719 0.0546875 10.75 0.0546875 Z M 10.75 0.0546875 "/></g></g></g><g fill="#01cbb3" fill-opacity="1"><g transform="translate(184.411186, 333.808864)"><g><path d="M 11.84375 -8.929688 L 11.84375 -8.457031 L 15.371094 -8.457031 L 15.371094 -0.980469 C 14.363281 -0.53125 12.710938 0.0546875 10.75 0.0546875 C 6.382812 0.0546875 2.101562 -2.128906 2.101562 -8.707031 C 2.101562 -15.957031 7.785156 -17.441406 10.75 -17.441406 C 14.054688 -17.441406 15.875 -16.660156 15.875 -16.660156 L 15.875 -17.21875 C 15.875 -17.21875 13.941406 -17.890625 10.75 -17.890625 C 5.710938 -17.890625 1.121094 -15.203125 1.121094 -8.707031 C 1.121094 -1.230469 6.972656 0.53125 10.5 0.53125 C 14 0.53125 16.351562 -0.953125 16.351562 -0.953125 L 16.351562 -8.929688 Z M 11.84375 -8.929688 "/></g></g></g><g fill="#01cbb3" fill-opacity="1"><g transform="translate(202.160765, 333.808864)"><g><path d="M 13.664062 0.0546875 L 7.082031 -8.257812 C 9.15625 -8.539062 12.289062 -9.546875 12.289062 -13.160156 C 12.289062 -17.023438 8.089844 -17.554688 6.664062 -17.554688 L 1.34375 -17.554688 L 1.34375 0.0546875 L 2.324219 0.0546875 L 2.324219 -8.148438 L 5.347656 -8.148438 C 5.460938 -8.148438 5.628906 -8.148438 5.878906 -8.148438 L 12.375 0.0546875 Z M 4.871094 -8.59375 L 2.324219 -8.59375 L 2.324219 -17.105469 L 5.597656 -17.105469 C 8.457031 -17.105469 11.28125 -16.40625 11.28125 -12.851562 C 11.28125 -9.714844 8.148438 -8.59375 4.871094 -8.59375 Z M 4.871094 -8.59375 "/></g></g></g><g fill="#01cbb3" fill-opacity="1"><g transform="translate(216.774766, 333.808864)"><g><path d="M 0.980469 0.0273438 L 1.597656 0.0273438 L 4.757812 -7.027344 L 12.65625 -7.027344 L 15.707031 0.0273438 L 16.796875 0.0273438 L 9.097656 -17.890625 L 8.960938 -17.890625 Z M 4.957031 -7.503906 L 8.792969 -16.097656 L 12.457031 -7.503906 Z M 4.957031 -7.503906 "/></g></g></g><g fill="#01cbb3" fill-opacity="1"><g transform="translate(234.580341, 333.808864)"><g><path d="M 6.664062 -17.554688 L 1.34375 -17.554688 L 1.34375 0.0546875 L 2.324219 0.0546875 L 2.324219 -8.148438 L 5.347656 -8.148438 C 6.1875 -8.148438 12.289062 -8.121094 12.289062 -13.160156 C 12.289062 -17.023438 8.089844 -17.554688 6.664062 -17.554688 Z M 4.871094 -8.59375 L 2.324219 -8.59375 L 2.324219 -17.105469 L 5.597656 -17.105469 C 8.457031 -17.105469 11.28125 -16.492188 11.28125 -12.851562 C 11.28125 -9.492188 8.148438 -8.59375 4.871094 -8.59375 Z M 4.871094 -8.59375 "/></g></g></g><g fill="#01cbb3" fill-opacity="1"><g transform="translate(248.0465, 333.808864)"><g><path d="M 12.570312 -17.554688 L 12.570312 -9.378906 L 2.324219 -9.378906 L 2.324219 -17.554688 L 1.34375 -17.554688 L 1.34375 0.0273438 L 2.324219 0.0273438 L 2.324219 -8.929688 L 12.570312 -8.929688 L 12.570312 0.0273438 L 13.578125 0.0273438 L 13.578125 -17.554688 Z M 12.570312 -17.554688 "/></g></g></g><g fill="#01cbb3" fill-opacity="1"><g transform="translate(263.080454, 333.808864)"><g><path d="M 12.570312 -17.554688 L 7.25 -8.625 L 2.128906 -17.554688 L 0.925781 -17.554688 L 6.496094 -7.894531 L 6.496094 0.0273438 L 7.503906 0.0273438 L 7.503906 -8.175781 L 13.128906 -17.554688 Z M 12.570312 -17.554688 "/></g></g></g><path stroke-linecap="butt" transform="matrix(0.000000000000000138, 2.247136, -2.25, 0.000000000000000138, 186.373864, 31.899501)" fill="none" stroke-linejoin="miter" d="M -0.000473352 -0.000504773 L 110.475226 -0.000504773 " stroke="#01cbb3" stroke-width="1" stroke-opacity="1" stroke-miterlimit="4"/></svg>