<svg xmlns="http://www.w3.org/2000/svg" xmlns:xlink="http://www.w3.org/1999/xlink" width="500" zoomAndPan="magnify" viewBox="0 0 375 374.999991" height="500" preserveAspectRatio="xMidYMid meet" version="1.0"><path fill="#01cbb3" d="M 103.507812 323.925781 L 157.453125 230.496094 L 211.398438 323.925781 Z M 103.507812 323.925781 " fill-opacity="1" fill-rule="nonzero"/><path fill="#01cbb3" d="M 246.050781 97.046875 C 225.726562 76.371094 180.992188 87.382812 146.132812 121.648438 C 111.277344 155.910156 99.496094 200.449219 119.824219 221.125 C 140.148438 241.804688 184.882812 230.792969 219.738281 196.527344 C 254.597656 162.265625 266.375 117.726562 246.050781 97.046875 " fill-opacity="1" fill-rule="nonzero"/><path fill="#01cbb3" d="M 153.796875 123.496094 L 204.171875 208.71875 L 119.597656 258.710938 L 153.796875 123.496094 " fill-opacity="1" fill-rule="nonzero"/><path fill="#01cbb3" d="M 136.957031 67.234375 L 136.957031 67.371094 L 19.703125 179.734375 L 137.042969 179.734375 L 254.441406 67.234375 L 136.957031 67.234375 " fill-opacity="1" fill-rule="nonzero"/><path fill="#01cbb3" d="M 134.082031 73.5625 C 133.945312 73.683594 133.808594 73.75 133.640625 73.894531 L 110.863281 93.429688 C 104.925781 98.523438 104.011719 107.328125 108.867188 112.984375 L 163.933594 177.183594 C 168.785156 182.839844 177.648438 183.304688 183.585938 178.210938 L 206.363281 158.675781 C 212.300781 153.582031 213.210938 144.78125 208.359375 139.121094 L 153.292969 74.925781 C 151.15625 72.429688 148.234375 70.953125 145.179688 70.511719 C 144.273438 66.28125 141.472656 56.722656 130.351562 52.996094 C 130.328125 52.96875 136.261719 59.832031 134.082031 73.5625 " fill-opacity="1" fill-rule="nonzero"/><path fill="#01cbb3" d="M 136.925781 76.402344 L 253.90625 76.402344 L 253.90625 122.152344 L 136.925781 122.152344 L 136.925781 76.402344 " fill-opacity="1" fill-rule="nonzero"/><path fill="#01cbb3" d="M 188.507812 84.769531 L 296.496094 84.769531 L 296.496094 127.519531 L 188.507812 127.519531 L 188.507812 84.769531 " fill-opacity="1" fill-rule="nonzero"/><path fill="#01cbb3" d="M 256.488281 67.234375 L 233.8125 67.234375 L 217.777344 83.320312 L 217.777344 94.648438 L 233.8125 110.734375 L 256.488281 110.734375 L 272.519531 94.648438 L 272.519531 83.320312 L 256.488281 67.234375 " fill-opacity="1" fill-rule="nonzero"/><path fill="#01cbb3" d="M 357.816406 96.492188 L 291.957031 127.398438 L 274.753906 90.738281 L 340.613281 59.832031 L 357.816406 96.492188 " fill-opacity="1" fill-rule="nonzero"/><path fill="#01cbb3" d="M 291.546875 126.875 L 366.214844 200.363281 L 357.402344 95.96875 L 291.546875 126.875 " fill-opacity="1" fill-rule="nonzero"/><path fill="#01cbb3" d="M 11.257812 230.964844 L 88.683594 153.539062 L 165.582031 230.433594 L 11.257812 230.964844 " fill-opacity="1" fill-rule="nonzero"/></svg>