<svg xmlns="http://www.w3.org/2000/svg" xmlns:xlink="http://www.w3.org/1999/xlink" width="500" zoomAndPan="magnify" viewBox="0 0 375 374.999991" height="500" preserveAspectRatio="xMidYMid meet" version="1.0"><defs><g/></defs><g fill="#000000" fill-opacity="1"><g transform="translate(0.0741445, 267.966273)"><g><path d="M 158.652344 -19.230469 L 177.882812 -19.230469 L 177.882812 -132.207031 C 177.882812 -152.882812 162.496094 -168.265625 141.824219 -168.265625 L 28.84375 -168.265625 L 28.84375 -149.035156 L 141.824219 -149.035156 C 151.199219 -149.035156 158.652344 -141.582031 158.652344 -132.207031 Z M 9.613281 0 L 158.652344 0 L 158.652344 -19.230469 L 28.84375 -19.230469 L 28.84375 -149.035156 L 9.613281 -149.035156 Z M 9.613281 0 "/></g></g></g><g fill="#01cbb3" fill-opacity="1"><g transform="translate(187.499989, 267.966273)"><g><path d="M 158.652344 -117.785156 L 177.882812 -117.785156 C 177.882812 -148.074219 164.902344 -168.265625 141.824219 -168.265625 L 28.84375 -168.265625 L 28.84375 -149.035156 L 137.015625 -149.035156 C 151.199219 -149.035156 158.652344 -134.371094 158.652344 -117.785156 Z M 158.652344 -19.230469 L 177.882812 -19.230469 L 177.882812 -57.691406 C 177.882812 -80.765625 164.902344 -93.746094 141.824219 -93.746094 L 45.671875 -93.746094 C 36.539062 -93.746094 28.84375 -101.199219 28.84375 -110.574219 L 28.84375 -149.035156 L 9.613281 -149.035156 L 9.613281 -110.574219 C 9.613281 -87.738281 22.835938 -74.519531 45.671875 -74.519531 L 141.824219 -74.519531 C 151.199219 -74.519531 158.652344 -67.066406 158.652344 -57.691406 Z M 45.671875 0 L 158.652344 0 L 158.652344 -19.230469 L 50.480469 -19.230469 C 36.539062 -19.230469 28.84375 -33.894531 28.84375 -50.480469 L 9.613281 -50.480469 C 9.613281 -20.433594 22.835938 0 45.671875 0 Z M 45.671875 0 "/></g></g></g></svg>