<svg xmlns="http://www.w3.org/2000/svg" xmlns:xlink="http://www.w3.org/1999/xlink" width="500" zoomAndPan="magnify" viewBox="0 0 375 374.999991" height="500" preserveAspectRatio="xMidYMid meet" version="1.0"><defs><g/></defs><g fill="#01cbb3" fill-opacity="1"><g transform="translate(27.714847, 296.624979)"><g><path d="M 42.046875 -89.203125 C 31.941406 -89.203125 21.234375 -83.640625 9.921875 -72.515625 L 9.921875 -111.25 C 19.484375 -121.175781 31.617188 -126.140625 46.328125 -126.140625 C 52.660156 -126.140625 58.628906 -125.519531 64.234375 -124.28125 C 69.847656 -123.039062 76.742188 -120.765625 84.921875 -117.453125 C 96.960938 -112.398438 107.898438 -109.875 117.734375 -109.875 C 122.328125 -109.875 127.492188 -111.34375 133.234375 -114.28125 C 138.984375 -117.226562 144.429688 -121.320312 149.578125 -126.5625 L 149.578125 -87.8125 C 139.929688 -77.800781 127.800781 -72.796875 113.1875 -72.796875 C 106.65625 -72.796875 100.519531 -73.484375 94.78125 -74.859375 C 89.039062 -76.234375 82.304688 -78.484375 74.578125 -81.609375 C 62.546875 -86.671875 51.703125 -89.203125 42.046875 -89.203125 Z M 42.046875 -89.203125 "/></g></g><g transform="translate(187.498941, 296.624979)"><g><path d="M 9.921875 -65.203125 L 95.40625 -99.953125 L 9.921875 -138.96875 L 9.921875 -179.90625 L 149.3125 -110.15625 L 149.3125 -86.4375 L 9.921875 -24.546875 Z M 9.921875 -65.203125 "/></g></g></g></svg>